<svg id="visual" viewBox="0 0 900 600" width="900" height="600" xmlns="http://www.w3.org/2000/svg" xmlns:xlink="http://www.w3.org/1999/xlink" version="1.1"><g id="wave1" ><path d="M0 73L16.7 66C33.3 59 66.7 45 100 47C133.3 49 166.7 67 200 74C233.3 81 266.7 77 300 76C333.3 75 366.7 77 400 78C433.3 79 466.7 79 500 76C533.3 73 566.7 67 600 66C633.3 65 666.7 69 700 68C733.3 67 766.7 61 800 61C833.3 61 866.7 67 883.3 70L900 73L900 0L883.3 0C866.7 0 833.3 0 800 0C766.7 0 733.3 0 700 0C666.7 0 633.3 0 600 0C566.7 0 533.3 0 500 0C466.7 0 433.3 0 400 0C366.7 0 333.3 0 300 0C266.7 0 233.3 0 200 0C166.7 0 133.3 0 100 0C66.7 0 33.3 0 16.7 0L0 0Z" fill="#6198ff"></path><path d="M0 235L16.7 216C33.3 197 66.7 159 100 159C133.3 159 166.7 197 200 221C233.3 245 266.7 255 300 247C333.3 239 366.7 213 400 212C433.3 211 466.7 235 500 231C533.3 227 566.7 195 600 186C633.3 177 666.7 191 700 195C733.3 199 766.7 193 800 188C833.3 183 866.7 179 883.3 177L900 175L900 71L883.3 68C866.7 65 833.3 59 800 59C766.7 59 733.3 65 700 66C666.7 67 633.3 63 600 64C566.7 65 533.3 71 500 74C466.7 77 433.3 77 400 76C366.7 75 333.3 73 300 74C266.7 75 233.3 79 200 72C166.7 65 133.3 47 100 45C66.7 43 33.3 57 16.7 64L0 71Z" fill="#4385ff"></path><path d="M0 331L16.7 319C33.3 307 66.7 283 100 278C133.3 273 166.7 287 200 304C233.3 321 266.7 341 300 338C333.3 335 366.7 309 400 302C433.3 295 466.7 307 500 304C533.3 301 566.7 283 600 275C633.3 267 666.7 269 700 276C733.3 283 766.7 295 800 296C833.3 297 866.7 287 883.3 282L900 277L900 173L883.3 175C866.7 177 833.3 181 800 186C766.7 191 733.3 197 700 193C666.7 189 633.3 175 600 184C566.7 193 533.3 225 500 229C466.7 233 433.3 209 400 210C366.7 211 333.3 237 300 245C266.7 253 233.3 243 200 219C166.7 195 133.3 157 100 157C66.7 157 33.3 195 16.7 214L0 233Z" fill="#2071ff"></path><path d="M0 415L16.7 403C33.3 391 66.7 367 100 359C133.3 351 166.7 359 200 367C233.3 375 266.7 383 300 378C333.3 373 366.7 355 400 356C433.3 357 466.7 377 500 378C533.3 379 566.7 361 600 350C633.3 339 666.7 335 700 344C733.3 353 766.7 375 800 372C833.3 369 866.7 341 883.3 327L900 313L900 275L883.3 280C866.7 285 833.3 295 800 294C766.7 293 733.3 281 700 274C666.7 267 633.3 265 600 273C566.7 281 533.3 299 500 302C466.7 305 433.3 293 400 300C366.7 307 333.3 333 300 336C266.7 339 233.3 319 200 302C166.7 285 133.3 271 100 276C66.7 281 33.3 305 16.7 317L0 329Z" fill="#0061f1"></path><path d="M0 499L16.7 509C33.3 519 66.7 539 100 544C133.3 549 166.7 539 200 529C233.3 519 266.7 509 300 505C333.3 501 366.7 503 400 511C433.3 519 466.7 533 500 531C533.3 529 566.7 511 600 503C633.3 495 666.7 497 700 504C733.3 511 766.7 523 800 523C833.3 523 866.7 511 883.3 505L900 499L900 311L883.3 325C866.7 339 833.3 367 800 370C766.7 373 733.3 351 700 342C666.7 333 633.3 337 600 348C566.7 359 533.3 377 500 376C466.7 375 433.3 355 400 354C366.7 353 333.3 371 300 376C266.7 381 233.3 373 200 365C166.7 357 133.3 349 100 357C66.7 365 33.3 389 16.7 401L0 413Z" fill="#0056d6"></path><path d="M0 601L16.7 601C33.3 601 66.7 601 100 601C133.3 601 166.7 601 200 601C233.3 601 266.7 601 300 601C333.3 601 366.7 601 400 601C433.3 601 466.7 601 500 601C533.3 601 566.7 601 600 601C633.3 601 666.7 601 700 601C733.3 601 766.7 601 800 601C833.3 601 866.7 601 883.3 601L900 601L900 497L883.3 503C866.7 509 833.3 521 800 521C766.7 521 733.3 509 700 502C666.7 495 633.3 493 600 501C566.7 509 533.3 527 500 529C466.7 531 433.3 517 400 509C366.7 501 333.3 499 300 503C266.7 507 233.3 517 200 527C166.7 537 133.3 547 100 542C66.7 537 33.3 517 16.7 507L0 497Z" fill="#004cbb"></path></g><g id="wave2" ><path d="M0 61L13.7 87C27.3 113 54.7 165 82 192C109.3 219 136.7 221 163.8 221C191 221 218 219 245.2 204C272.3 189 299.7 161 327 154C354.3 147 381.7 161 409 155C436.3 149 463.7 123 491 124C518.3 125 545.7 153 573 167C600.3 181 627.7 181 654.8 180C682 179 709 177 736.2 168C763.3 159 790.7 143 818 141C845.3 139 872.7 151 886.3 157L900 163L900 0L886.3 0C872.7 0 845.3 0 818 0C790.7 0 763.3 0 736.2 0C709 0 682 0 654.8 0C627.7 0 600.3 0 573 0C545.7 0 518.3 0 491 0C463.7 0 436.3 0 409 0C381.7 0 354.3 0 327 0C299.7 0 272.3 0 245.2 0C218 0 191 0 163.8 0C136.7 0 109.3 0 82 0C54.7 0 27.3 0 13.7 0L0 0Z" fill="#6198ff"></path><path d="M0 139L13.7 158C27.3 177 54.7 215 82 235C109.3 255 136.7 257 163.8 263C191 269 218 279 245.2 272C272.3 265 299.7 241 327 232C354.3 223 381.7 229 409 224C436.3 219 463.7 203 491 206C518.3 209 545.7 231 573 247C600.3 263 627.7 273 654.8 267C682 261 709 239 736.2 221C763.3 203 790.7 189 818 196C845.3 203 872.7 231 886.3 245L900 259L900 161L886.3 155C872.7 149 845.3 137 818 139C790.7 141 763.3 157 736.2 166C709 175 682 177 654.8 178C627.7 179 600.3 179 573 165C545.7 151 518.3 123 491 122C463.7 121 436.3 147 409 153C381.7 159 354.3 145 327 152C299.7 159 272.3 187 245.2 202C218 217 191 219 163.8 219C136.7 219 109.3 217 82 190C54.7 163 27.3 111 13.7 85L0 59Z" fill="#3c80ff"></path><path d="M0 283L13.7 297C27.3 311 54.7 339 82 358C109.3 377 136.7 387 163.8 388C191 389 218 381 245.2 369C272.3 357 299.7 341 327 336C354.3 331 381.7 337 409 323C436.3 309 463.7 275 491 274C518.3 273 545.7 305 573 321C600.3 337 627.7 337 654.8 346C682 355 709 373 736.2 362C763.3 351 790.7 311 818 311C845.3 311 872.7 351 886.3 371L900 391L900 257L886.3 243C872.7 229 845.3 201 818 194C790.7 187 763.3 201 736.2 219C709 237 682 259 654.8 265C627.7 271 600.3 261 573 245C545.7 229 518.3 207 491 204C463.7 201 436.3 217 409 222C381.7 227 354.3 221 327 230C299.7 239 272.3 263 245.2 270C218 277 191 267 163.8 261C136.7 255 109.3 253 82 233C54.7 213 27.3 175 13.7 156L0 137Z" fill="#0066ff"></path><path d="M0 481L13.7 489C27.3 497 54.7 513 82 513C109.3 513 136.7 497 163.8 497C191 497 218 513 245.2 526C272.3 539 299.7 549 327 545C354.3 541 381.7 523 409 516C436.3 509 463.7 513 491 508C518.3 503 545.7 489 573 490C600.3 491 627.7 507 654.8 519C682 531 709 539 736.2 539C763.3 539 790.7 531 818 523C845.3 515 872.7 507 886.3 503L900 499L900 389L886.3 369C872.7 349 845.3 309 818 309C790.7 309 763.3 349 736.2 360C709 371 682 353 654.8 344C627.7 335 600.3 335 573 319C545.7 303 518.3 271 491 272C463.7 273 436.3 307 409 321C381.7 335 354.3 329 327 334C299.7 339 272.3 355 245.2 367C218 379 191 387 163.8 386C136.7 385 109.3 375 82 356C54.7 337 27.3 309 13.7 295L0 281Z" fill="#0059dd"></path><path d="M0 601L13.7 601C27.3 601 54.7 601 82 601C109.3 601 136.7 601 163.8 601C191 601 218 601 245.2 601C272.3 601 299.7 601 327 601C354.3 601 381.7 601 409 601C436.3 601 463.7 601 491 601C518.3 601 545.7 601 573 601C600.3 601 627.7 601 654.8 601C682 601 709 601 736.2 601C763.3 601 790.7 601 818 601C845.3 601 872.7 601 886.3 601L900 601L900 497L886.3 501C872.7 505 845.3 513 818 521C790.7 529 763.3 537 736.2 537C709 537 682 529 654.8 517C627.7 505 600.3 489 573 488C545.7 487 518.3 501 491 506C463.7 511 436.3 507 409 514C381.7 521 354.3 539 327 543C299.7 547 272.3 537 245.2 524C218 511 191 495 163.8 495C136.7 495 109.3 511 82 511C54.7 511 27.3 495 13.7 487L0 479Z" fill="#004cbb"></path></g></svg>